<svg width="80" height="80" viewBox="0 0 80 80" fill="none" xmlns="http://www.w3.org/2000/svg">
<rect width="80" height="80" rx="40" fill="#212A49"/>
<path fill-rule="evenodd" clip-rule="evenodd" d="M63.8965 13.6305H16.1034C14.7323 13.6305 13.6207 14.7598 13.6207 16.1527V45.8473C13.6207 47.2402 14.7323 48.3695 16.1034 48.3695H63.8965C65.2677 48.3695 66.3793 47.2402 66.3793 45.8473V16.1527C66.3793 14.7598 65.2677 13.6305 63.8965 13.6305ZM16.1034 13C14.3895 13 13 14.4115 13 16.1527V45.8473C13 47.5885 14.3895 49 16.1034 49H63.8965C65.6105 49 67 47.5885 67 45.8473V16.1527C67 14.4115 65.6105 13 63.8965 13H16.1034Z" fill="white"/>
<path fill-rule="evenodd" clip-rule="evenodd" d="M66.4115 23.6539H59.5885V38.3461H66.4115V23.6539ZM59 23V39H67V23H59Z" fill="white"/>
<path fill-rule="evenodd" clip-rule="evenodd" d="M20.4115 23.6539H13.5885V38.3461H20.4115V23.6539ZM13 23V39H21V23H13Z" fill="white"/>
<path fill-rule="evenodd" clip-rule="evenodd" d="M39.5 39.3052C43.8107 39.3052 47.3052 35.8107 47.3052 31.5C47.3052 27.1893 43.8107 23.6948 39.5 23.6948C35.1893 23.6948 31.6948 27.1893 31.6948 31.5C31.6948 35.8107 35.1893 39.3052 39.5 39.3052ZM39.5 40C44.1944 40 48 36.1944 48 31.5C48 26.8056 44.1944 23 39.5 23C34.8056 23 31 26.8056 31 31.5C31 36.1944 34.8056 40 39.5 40Z" fill="white"/>
<path d="M68.4653 55.5216L68.8172 52H72.9999L72.8541 53.4891L72.2408 53.7608L72.8088 53.9167L72.7083 54.9531L72.0246 55.5216H68.4653ZM70.9085 54.1532H70.4812L70.436 54.5808H70.8683L70.9085 54.1532ZM70.6019 52.9408L70.5566 53.3684H70.989L71.0292 52.9408H70.6019Z" fill="white"/>
<path d="M63.9487 55.5216L64.3006 52H66.1607L65.9043 54.5808H66.3316L66.593 52H68.4531L68.1565 54.9531L67.4728 55.5216H63.9487Z" fill="white"/>
<path d="M59.8442 55.5216L60.1961 52H61.9557L61.6993 54.5808H63.69L63.5995 55.5216H59.8442Z" fill="white"/>
<path d="M55.4653 55.5216L55.8172 52H59.844L59.6932 53.5243H57.8533L57.9136 52.9408H57.4812L57.3204 54.5808H57.7477L57.813 53.957H59.648L59.5524 54.9531L58.8687 55.5216H55.4653Z" fill="white"/>
<path d="M50.104 55.5216L50.4559 52H52.2154L51.959 54.5808H53.9498L53.8593 55.5216H50.104Z" fill="white"/>
<path d="M46 55.5216L46.3519 52H48.1114L47.855 54.5808H49.8458L49.7553 55.5216H46Z" fill="white"/>
<path d="M41.8944 52H46.0016L45.6497 55.5216H43.8097L43.9053 54.5808H43.4729L43.3824 55.5216H41.5425L41.8944 52ZM43.9857 53.7608C43.9958 53.6568 44.0058 53.5545 44.0159 53.4539C44.0226 53.3667 44.0309 53.2762 44.041 53.1822C44.0511 53.0883 44.0594 53.0078 44.0661 52.9408H43.6388L43.5584 53.7608H43.9857Z" fill="white"/>
<path d="M37.0063 55.5216L37.3583 52H41.5409L41.3951 53.4891L40.7818 53.7608L41.3498 53.9167L41.2493 54.9531L40.5656 55.5216H37.0063ZM39.4496 54.1532H39.0223L38.977 54.5808H39.4093L39.4496 54.1532ZM39.1429 52.9408L39.0977 53.3684H39.53L39.5702 52.9408H39.1429Z" fill="white"/>
<path d="M33.2661 52.9408L33.3616 52H36.9963L36.9058 52.9408H36.197L35.9406 55.5216H33.7135L33.9699 52.9408H33.2661Z" fill="white"/>
<path d="M28.9042 52H33.0114L32.7148 54.9531L32.0311 55.5216H28.5522L28.9042 52ZM30.4827 54.5808H30.915L31.0759 52.9408H30.6486L30.4827 54.5808Z" fill="white"/>
<path d="M24.4461 52H28.5534L28.2568 54.9531L27.5731 55.5216H24.0942L24.4461 52ZM26.0247 54.5808H26.457L26.6179 52.9408H26.1906L26.0247 54.5808Z" fill="white"/>
<path d="M19.9854 55.5216L20.3373 52H24.0926L23.9971 52.9408H22.0013L21.961 53.3684H23.9518L23.8764 54.1532H21.8806L21.7398 55.5216H19.9854Z" fill="white"/>
<path d="M15.9188 52H17.442L18.0051 53.4086L18.1458 52H19.9858L19.6339 55.5216H18.0101L17.4923 54.2287L17.3666 55.5216H15.5669L15.9188 52Z" fill="white"/>
<path d="M11.4608 52H15.568L15.2161 55.5216H13.3762L13.4717 54.5808H13.0393L12.9488 55.5216H11.1089L11.4608 52ZM13.5521 53.7608C13.5622 53.6568 13.5722 53.5545 13.5823 53.4539C13.589 53.3667 13.5973 53.2762 13.6074 53.1822C13.6175 53.0883 13.6258 53.0078 13.6325 52.9408H13.2052L13.1248 53.7608H13.5521Z" fill="white"/>
<path d="M7 55.5216L7.3519 52H11.1072L11.0117 52.9408H9.0159L8.97569 53.3684H10.9665L10.891 54.1532H8.89525L8.75449 55.5216H7Z" fill="white"/>
<path fill-rule="evenodd" clip-rule="evenodd" d="M51 70H29V69H51V70Z" fill="white"/>
<path d="M45.9883 64.25H46.7397L47.5334 65.5925V64.25H47.9996V65.9975H47.2407L46.4545 64.655V65.9975H45.9883V64.25Z" fill="white"/>
<path d="M45.5922 66H45.1309V64.25H45.5922V66Z" fill="white"/>
<path d="M44.4185 64.25H44.855L44.4755 65.9975H43.7092L43.6025 65.58L43.4934 65.9975H42.7271L42.3501 64.25H42.7841L43.0792 65.6175H43.176L43.4785 64.7225H43.7241L44.0266 65.6175H44.1233L44.4185 64.25Z" fill="white"/>
<path d="M40.8837 65.21C40.8564 65.39 40.7869 65.505 40.6456 65.565L40.8985 66H40.3752L40.1545 65.6175H39.3485V65.9975H38.8872V64.25H40.3083C40.653 64.25 40.8266 64.355 40.8812 64.6325C40.8936 64.7 40.8985 64.8375 40.8985 64.9225C40.8985 65.005 40.8961 65.135 40.8837 65.21ZM39.3485 64.6325V65.2125H40.2661C40.3529 65.2125 40.4224 65.14 40.4224 65.055V64.79C40.4224 64.7025 40.3529 64.6325 40.2661 64.6325H39.3485Z" fill="white"/>
<path d="M38.0064 64.25H38.5099V65.2925C38.5099 65.78 38.3313 65.9975 37.8378 65.9975H37.1954C36.7217 65.9975 36.4985 65.845 36.4985 65.3575V64.25H37.002V65.385C37.002 65.5575 37.1161 65.6175 37.2996 65.6175H37.7336C37.9593 65.6175 38.0064 65.545 38.0064 65.3825V64.25Z" fill="white"/>
<path d="M35.5258 64.25C36.0094 64.25 36.1607 64.475 36.1607 64.955V65.32C36.1607 65.8175 35.945 65.9975 35.4613 65.9975H34.8165C34.3329 65.9975 34.1196 65.8175 34.1196 65.32V64.955C34.1196 64.475 34.2709 64.25 34.7545 64.25H35.5258ZM35.6845 65.345V64.93C35.6845 64.745 35.625 64.6325 35.4539 64.6325H34.8264C34.6553 64.6325 34.5958 64.745 34.5958 64.93V65.345C34.5958 65.57 34.6677 65.6175 34.8289 65.6175H35.4514C35.6126 65.6175 35.6845 65.57 35.6845 65.345Z" fill="white"/>
<path d="M33.9439 64.25L33.5397 65.5925L33.1702 65.59V65.9975H32.7064V65.5925H32.3369L31.9326 64.25H32.4038L32.6841 65.1875H33.19L33.4727 64.25H33.9439Z" fill="white"/>
<path d="M49.0702 61.125H49.8143V62.8725H49.353V61.53L48.6511 62.8725H48.5147L47.8129 61.53V62.8725H47.3516V61.125H48.0956L48.5817 62.075L49.0702 61.125Z" fill="white"/>
<path d="M46.5717 61.135L47.0975 62.8825H46.6263L46.5047 62.4775H45.5722L45.4507 62.8825H44.9795L45.5053 61.135H46.5717ZM46.217 61.5175H45.8599L45.6962 62.0725H46.3807L46.217 61.5175Z" fill="white"/>
<path d="M44.795 61.5075H43.245V61.8075H44.5545V62.19H43.245V62.4925H44.795V62.8725H42.7837V61.125H44.795V61.5075Z" fill="white"/>
<path d="M42.5274 61.125V61.5075H41.7537V62.8725H41.2899V61.5075H40.5161V61.125H42.5274Z" fill="white"/>
<path d="M39.0672 62.085C39.04 62.265 38.9705 62.38 38.8292 62.44L39.0821 62.875H38.5588L38.3381 62.4925H37.5321V62.8725H37.0708V61.125H38.4919C38.8366 61.125 39.0102 61.23 39.0648 61.5075C39.0772 61.575 39.0821 61.7125 39.0821 61.7975C39.0821 61.88 39.0796 62.01 39.0672 62.085ZM37.5321 61.5075V62.0875H38.4497C38.5365 62.0875 38.606 62.015 38.606 61.93V61.665C38.606 61.5775 38.5365 61.5075 38.4497 61.5075H37.5321Z" fill="white"/>
<path d="M36.19 61.125H36.6935V62.1675C36.6935 62.655 36.5149 62.8725 36.0214 62.8725H35.379C34.9053 62.8725 34.6821 62.72 34.6821 62.2325V61.125H35.1856V62.26C35.1856 62.4325 35.2997 62.4925 35.4832 62.4925H35.9172C36.1429 62.4925 36.19 62.42 36.19 62.2575V61.125Z" fill="white"/>
<path d="M33.7094 61.125C34.193 61.125 34.3443 61.35 34.3443 61.83V62.195C34.3443 62.6925 34.1285 62.8725 33.6449 62.8725H33.0001C32.5165 62.8725 32.3032 62.6925 32.3032 62.195V61.83C32.3032 61.35 32.4545 61.125 32.9381 61.125H33.7094ZM33.8681 62.22V61.805C33.8681 61.62 33.8086 61.5075 33.6375 61.5075H33.01C32.8389 61.5075 32.7794 61.62 32.7794 61.805V62.22C32.7794 62.445 32.8513 62.4925 33.0125 62.4925H33.635C33.7962 62.4925 33.8681 62.445 33.8681 62.22Z" fill="white"/>
<path d="M32.1275 61.125L31.7233 62.4675L31.3538 62.465V62.8725H30.89V62.4675H30.5205L30.1162 61.125H30.5874L30.8677 62.0625H31.3736L31.6563 61.125H32.1275Z" fill="white"/>
<path d="M50.0001 58.3825H48.4501V58.6825H49.7595V59.065H48.4501V59.3675H50.0001V59.7475H47.9888V58H50.0001V58.3825Z" fill="white"/>
<path d="M46.8495 58H47.5936V59.7475H47.1323V58.405L46.4304 59.7475H46.294L45.5922 58.405V59.7475H45.1309V58H45.8749L46.361 58.95L46.8495 58Z" fill="white"/>
<path d="M44.351 58.01L44.8768 59.7575H44.4055L44.284 59.3525H43.3515L43.23 59.7575H42.7588L43.2846 58.01H44.351ZM43.9963 58.3925H43.6392L43.4755 58.9475H44.16L43.9963 58.3925Z" fill="white"/>
<path d="M41.2083 58.3825C41.0372 58.3825 40.9776 58.4975 40.9776 58.68V59.095C40.9776 59.32 41.0496 59.3675 41.2108 59.3675H42.0515V59.065H41.5059V58.6825H42.5128V59.75H41.1984C40.7148 59.75 40.5015 59.5675 40.5015 59.07V58.705C40.5015 58.225 40.6527 58 41.1364 58H42.5128V58.3825H41.2083Z" fill="white"/>
<path d="M38.951 58.96C38.9238 59.14 38.8543 59.255 38.713 59.315L38.9659 59.75H38.4426L38.2219 59.3675H37.4159V59.7475H36.9546V58H38.3757C38.7204 58 38.894 58.105 38.9486 58.3825C38.961 58.45 38.9659 58.5875 38.9659 58.6725C38.9659 58.755 38.9634 58.885 38.951 58.96ZM37.4159 58.3825V58.9625H38.3335C38.4203 58.9625 38.4897 58.89 38.4897 58.805V58.54C38.4897 58.4525 38.4203 58.3825 38.3335 58.3825H37.4159Z" fill="white"/>
<path d="M36.0738 58H36.5772V59.0425C36.5772 59.53 36.3987 59.7475 35.9052 59.7475H35.2628C34.7891 59.7475 34.5659 59.595 34.5659 59.1075V58H35.0694V59.135C35.0694 59.3075 35.1835 59.3675 35.367 59.3675H35.801C36.0267 59.3675 36.0738 59.295 36.0738 59.1325V58Z" fill="white"/>
<path d="M33.5932 58C34.0768 58 34.2281 58.225 34.2281 58.705V59.07C34.2281 59.5675 34.0123 59.7475 33.5287 59.7475H32.8839C32.4003 59.7475 32.187 59.5675 32.187 59.07V58.705C32.187 58.225 32.3383 58 32.8219 58H33.5932ZM33.7519 59.095V58.68C33.7519 58.495 33.6924 58.3825 33.5213 58.3825H32.8938C32.7227 58.3825 32.6632 58.495 32.6632 58.68V59.095C32.6632 59.32 32.7351 59.3675 32.8963 59.3675H33.5188C33.68 59.3675 33.7519 59.32 33.7519 59.095Z" fill="white"/>
<path d="M32.0113 58L31.6071 59.3425L31.2376 59.34V59.7475H30.7738V59.3425H30.4042L30 58H30.4712L30.7515 58.9375H31.2574L31.5401 58H32.0113Z" fill="white"/>
<path fill-rule="evenodd" clip-rule="evenodd" d="M39 23L39 13L40 13L40 23L39 23Z" fill="white"/>
<path fill-rule="evenodd" clip-rule="evenodd" d="M39 49L39 40L40 40L40 49L39 49Z" fill="white"/>
</svg>
